Coordinates
version=1
nRows=22
nColumns=24
inDegrees=yes

Units are S.I. units (second, meters, Newtons, ...)
Angles are in degrees.

endheader
time	pelvis_tilt	pelvis_list	pelvis_rotation	pelvis_tx	pelvis_ty	pelvis_tz	hip_flexion_r	hip_adduction_r	hip_rotation_r	knee_angle_r	ankle_angle_r	subtalar_angle_r	mtp_angle_r	hip_flexion_l	hip_adduction_l	hip_rotation_l	knee_angle_l	ankle_angle_l	subtalar_angle_l	mtp_angle_l	lumbar_extension	lumbar_bending	lumbar_rotation
      0.97483333	     -4.55552844	      3.38763441	     -1.05150777	     -0.16384728	      1.00020271	      0.32378669	     -9.45727509	     -0.84935469	     -0.79280980	    -10.75369151	     11.68782874	     -3.80179650	      4.44084211	     20.96970236	      5.02777208	      0.84029541	      4.39645349	      0.58080484	     -6.09854396	      1.34978872	     -9.33586465	      1.61610271	      7.22320485
      0.97900000	     -4.55806168	      3.40472708	     -1.07725354	     -0.15811779	      0.99947254	      0.32351173	     -9.58469227	     -0.91347811	     -0.80596420	    -11.19204243	     11.59469514	     -3.79096840	      4.47425504	     20.94854512	      5.13175266	      0.98226401	      4.46318060	      0.60617671	     -6.03612234	      1.35866250	     -9.30759812	      1.59909132	      7.21309041
      0.98316667	     -4.56559665	      3.51307973	     -1.07785431	     -0.15234851	      0.99869116	      0.32309146	     -9.61401678	     -1.10990955	     -1.11377079	    -11.85567321	     11.84617241	     -3.17746646	      4.76521241	     20.94523215	      5.34766733	      1.17520236	      4.42899138	      0.54830212	     -6.15209942	      1.41268289	     -9.25877375	      1.48001899	      7.12157812
      0.98733333	     -4.55284532	      3.59995887	     -1.08387776	     -0.14654635	      0.99798220	      0.32270795	     -9.67944652	     -1.27455336	     -1.32100295	    -12.47715054	     11.91011337	     -2.82477978	      5.14864340	     20.91496976	      5.53709417	      1.39816748	      4.33236952	      0.45529459	     -6.32864252	      1.48391119	     -9.22313276	      1.40530491	      7.05774339
      0.99150000	     -4.53805902	      3.68686372	     -1.08246762	     -0.14074723	      0.99728990	      0.32234019	     -9.73219379	     -1.43516616	     -1.50740049	    -13.12691879	     11.93466512	     -2.51220701	      5.60889392	     20.89791124	      5.72652444	      1.64877807	      4.13848077	      0.31302298	     -6.56424565	      1.56980000	     -9.19341798	      1.30485589	      6.97998301
      0.99566667	     -4.53027637	      3.79199555	     -1.07230353	     -0.13492148	      0.99660594	      0.32194015	     -9.76267615	     -1.61753216	     -1.69475336	    -13.80782113	     11.93547962	     -2.21638350	      6.11620375	     20.89475409	      5.93846289	      1.93314707	      3.86577558	      0.12951778	     -6.86532644	      1.66468719	     -9.16040528	      1.20182054	      6.89894833
      0.99983333	     -4.48897818	      3.91498178	     -1.04950832	     -0.12906506	      0.99598642	      0.32153702	     -9.81842133	     -1.81881806	     -1.89942698	    -14.51216213	     11.90617994	     -1.92853651	      6.65067439	     20.86158465	      6.17354654	      2.23067120	      3.52343993	     -0.10620063	     -7.22591410	      1.76471508	     -9.15870562	      1.05911639	      6.80273872
      1.00400000	     -4.47558188	      4.04910874	     -1.02214771	     -0.12319717	      0.99534205	      0.32111268	     -9.82174531	     -2.03319151	     -2.09072968	    -15.26040028	     11.84369187	     -1.66597750	      7.18806059	     20.86642538	      6.42106652	      2.55904373	      3.11157453	     -0.38717105	     -7.64779373	      1.86547645	     -9.13294413	      0.92093351	      6.70872172
      1.00816667	     -4.44901292	      4.16854358	     -0.98828021	     -0.11731916	      0.99473391	      0.32069387	     -9.81724589	     -2.23209537	     -2.29295085	    -16.04986495	     11.73793137	     -1.41405568	      7.78412542	     20.86781800	      6.65586726	      2.88555433	      2.63250139	     -0.72179865	     -8.14235917	      1.97500595	     -9.09929539	      0.77611860	      6.60376785
      1.01233333	     -4.41738506	      4.28365017	     -0.93559210	     -0.11142572	      0.99416412	      0.32027527	     -9.83321760	     -2.41263174	     -2.42982793	    -16.78236467	     11.38150890	     -1.46902717	     14.54996946	     20.87655825	      6.89127853	      3.24103499	      2.08366442	     -1.08418997	     -8.67839922	      3.23529196	     -9.08931519	      0.63900715	      6.52288046
      1.01650000	     -4.36318627	      4.45039609	     -0.90083266	     -0.10551152	      0.99362359	      0.31982629	     -9.80370002	     -2.67679593	     -2.67658465	    -17.67833880	     11.24822845	     -1.12125297	     14.62634774	     20.87015031	      7.17780688	      3.48798765	      1.48763057	     -1.45510923	     -9.10164645	      3.23209100	     -9.09791904	      0.45090216	      6.39417894
      1.02066667	     -4.33438709	      4.59311103	     -0.84671148	     -0.09961120	      0.99306918	      0.31937028	     -9.73211020	     -2.90523968	     -2.88065418	    -18.59636931	     11.02063542	     -0.89730160	     14.77322779	     20.89195308	      7.44497588	      3.82580945	      0.85985404	     -1.89730314	     -9.71754636	      3.23573664	     -9.07704952	      0.28840705	      6.27250085
      1.02483333	     -4.30792584	      4.73486483	     -0.79038224	     -0.09371411	      0.99253304	      0.31890935	     -9.63301757	     -3.13453542	     -3.07719703	    -19.55270092	     10.73531367	     -0.69256740	     15.00006635	     20.92744336	      7.71299979	      4.15168509	      0.18435058	     -2.35862124	    -10.36011938	      3.24543924	     -9.05247521	      0.11620396	      6.15100575
      1.02900000	     -4.25025274	      4.89242898	     -0.73115557	     -0.08780666	      0.99206105	      0.31842299	     -9.54639361	     -3.38694604	     -3.28472750	    -20.54223803	     10.40161108	     -0.47378930	     15.35597138	     20.93466228	      8.00201063	      4.47429461	     -0.52270753	     -2.85358130	    -11.06320824	      3.26031079	     -9.07693328	     -0.05238719	      6.02161794
      1.03316667	     -4.21603310	      5.04321610	     -0.67257982	     -0.08191711	      0.99157517	      0.31795155	     -9.39414738	     -3.63394848	     -3.47987878	    -21.60059569	     10.00400591	     -0.30462190	     15.80097977	     20.97524843	      8.28128020	      4.76934795	     -1.26083778	     -3.34011875	    -11.72730969	      3.27584707	     -9.06491556	     -0.22747687	      5.89495751
      1.03733333	     -4.16468876	      5.19124146	     -0.61928325	     -0.07601253	      0.99116301	      0.31749907	     -9.24349208	     -3.87603540	     -3.64324360	    -22.65801467	      9.38350365	     -0.38219539	     21.47530122	     20.98793692	      8.55457963	      5.06667514	     -1.99696807	     -3.80442684	    -12.37856784	      3.46285208	     -9.07322947	     -0.40889390	      5.80224080
      1.04150000	     -4.11453551	      5.36892620	     -0.57307667	     -0.07012753	      0.99073664	      0.31702867	     -9.02836024	     -4.17337586	     -3.86758214	    -23.85099728	      8.89360603	     -0.14254312	     21.56047571	     21.03290376	      8.85524046	      5.22129961	     -2.80229441	     -4.19315438	    -12.83748177	      3.45312076	     -9.07783319	     -0.61297874	      5.65816368
      1.04566667	     -4.09257269	      5.52388458	     -0.52616572	     -0.06427847	      0.99030335	      0.31656557	     -8.75552344	     -4.44172752	     -4.03883289	    -25.07320638	      8.29680653	     -0.02274946	     21.72789410	     21.10665045	      9.13346656	      5.43159842	     -3.61593814	     -4.59085680	    -13.42803459	      3.43696906	     -9.05474611	     -0.79696549	      5.54077406
      1.04983333	     -4.03755869	      5.68544332	     -0.48808808	     -0.05843875	      0.98994266	      0.31609931	     -8.48613208	     -4.72697624	     -4.20960475	    -26.33788926	      7.64342983	      0.10648143	     22.02419970	     21.14414029	      9.41886452	      5.62772087	     -4.43706326	     -4.97096012	    -14.04801036	      3.40924819	     -9.07987872	     -0.98440614	      5.42284666
      1.05400000	     -3.96348837	      5.85352124	     -0.46125605	     -0.05259855	      0.98964299	      0.31565874	     -8.21120789	     -5.02319137	     -4.35886554	    -27.61478315	      6.78804525	      0.08111758	     26.96029303	     21.15230427	      9.70612981	      5.80957341	     -5.25302502	     -5.25225883	    -14.58861169	      2.99108887	     -9.13171914	     -1.18369847	      5.32930434
      1.05816667	     -3.90638517	      6.03835595	     -0.45003435	     -0.04678768	      0.98932861	      0.31523382	     -7.86083153	     -5.35106266	     -4.50344297	    -28.99706942	      5.96748093	      0.14988526	     27.01941713	     21.19406634	     10.00037199	      5.88391841	     -6.10115809	     -5.42627830	    -14.94886096	      2.98132393	     -9.15204401	     -1.39580287	      5.22479791
      1.06233333	     -3.86622366	      6.20370194	     -0.44315605	     -0.04103871	      0.98900854	      0.31481915	     -7.45274929	     -5.66080490	     -4.61712628	    -30.42632816	      5.09737933	      0.22955627	     27.19765667	     21.25984005	     10.27644716	      5.98790730	     -6.96803502	     -5.59060006	    -15.43395591	      2.95371137	     -9.17527663	     -1.59421259	      5.12555117
